<svg xmlns="http://www.w3.org/2000/svg" width="280" height="520" viewBox="0 0 280 520">
  <defs>
    <linearGradient id="g" x1="0" x2="0" y1="0" y2="1">
      <stop offset="0" stop-color="#ffffff" stop-opacity="0.20"/>
      <stop offset="1" stop-color="#ffffff" stop-opacity="0.04"/>
    </linearGradient>
    <linearGradient id="liq" x1="0" x2="0" y1="0" y2="1">
      <stop offset="0" stop-color="#f59e0b" stop-opacity="0.55"/>
      <stop offset="1" stop-color="#f59e0b" stop-opacity="0.18"/>
    </linearGradient>
  </defs>
  <rect x="0" y="0" width="280" height="520" fill="none"/>
  <!-- Bottle -->
  <path d="M118 24h44v40c0 10 6 20 14 26l8 6v40c0 8 4 16 10 20l8 6v260c0 38-30 68-68 68s-68-30-68-68V162l8-6c6-4 10-12 10-20V96l8-6c8-6 14-16 14-26V24z" fill="url(#g)" stroke="rgba(255,255,255,0.25)" stroke-width="2"/>
  <!-- Liquid -->
  <path d="M86 294h108v130c0 30-24 54-54 54s-54-24-54-54V294z" fill="url(#liq)"/>
  <!-- Label -->
  <rect x="78" y="300" width="124" height="90" rx="12" fill="rgba(0,0,0,0.25)" stroke="rgba(255,255,255,0.18)"/>
  <text x="140" y="340" text-anchor="middle" font-family="Arial, sans-serif" font-size="16" fill="rgba(255,255,255,0.85)">PRODUCT IMAGE</text>
  <text x="140" y="362" text-anchor="middle" font-family="Arial, sans-serif" font-size="12" fill="rgba(255,255,255,0.65)">placeholder</text>
  <!-- Cap -->
  <rect x="112" y="6" width="56" height="18" rx="6" fill="rgba(255,255,255,0.16)" stroke="rgba(255,255,255,0.25)"/>
</svg>
